PathFileType	4	(X/Y/Z)	/tmp/tmp8ooq684z//results/MarkerData/rotated_Sprint_04500001.trc
DataRate	CameraRate	NumFrames	NumMarkers	Units	OrigDataRate	OrigDataStartFrame	OrigNumFrames
200	200	9	46	m	200	588	785
Frame#	Time	C7			L.ASIS			L.PSIS			L_5meta			L_Shoulder			L_ankle			L_calc			L_elbow_lat			L_elbow_med			L_forearm			L_humerus			L_knee			L_sh2			L_sh3			L_shank_antsup			L_thigh1			L_thigh2			L_thigh3			L_thigh4			L_toe			L_wrist_radius			L_wrist_ulna			R_Shoulder			R_elbow_lat			R_elbow_med			R_forearm			R_humerus			R_wrist_radius			R_wrist_ulna			Sternum			r.ASIS			r.PSIS			r_5meta			r_ankle			r_calc			r_knee			r_sh2			r_sh3			r_sh4			r_shank_antsup			r_thigh1			r_thigh2			r_thigh3			r_thigh4			r_thigh5			r_toe		
		X1	Y1	Z1	X2	Y2	Z2	X3	Y3	Z3	X4	Y4	Z4	X5	Y5	Z5	X6	Y6	Z6	X7	Y7	Z7	X8	Y8	Z8	X9	Y9	Z9	X10	Y10	Z10	X11	Y11	Z11	X12	Y12	Z12	X13	Y13	Z13	X14	Y14	Z14	X15	Y15	Z15	X16	Y16	Z16	X17	Y17	Z17	X18	Y18	Z18	X19	Y19	Z19	X20	Y20	Z20	X21	Y21	Z21	X22	Y22	Z22	X23	Y23	Z23	X24	Y24	Z24	X25	Y25	Z25	X26	Y26	Z26	X27	Y27	Z27	X28	Y28	Z28	X29	Y29	Z29	X30	Y30	Z30	X31	Y31	Z31	X32	Y32	Z32	X33	Y33	Z33	X34	Y34	Z34	X35	Y35	Z35	X36	Y36	Z36	X37	Y37	Z37	X38	Y38	Z38	X39	Y39	Z39	X40	Y40	Z40	X41	Y41	Z41	X42	Y42	Z42	X43	Y43	Z43	X44	Y44	Z44	X45	Y45	Z45	X46	Y46	Z46

589	2.94	0.827651	1.51381	-0.313996	0.894896	0.975071	-0.42127	0.697427	1.02677	-0.329043	0.637379	0.0409137	-0.393805	0.905031	1.46737	-0.491895	0.519492	0.131429	-0.364171	0.452816	0.119448	-0.312654	0.758998	1.17818	-0.636679	0.721344	1.13191	-0.561155	0.905867	1.10311	-0.590698	0.836617	1.23634	-0.587888	0.786193	0.462927	-0.42855	0.67984	0.400695	-0.441499	0.61123	0.302052	-0.417324	0.749126	0.346021	-0.42034	0.890233	0.680322	-0.456244	0.866819	0.546622	-0.421697	0.77343	0.6991	-0.476321	0.756113	0.565891	-0.436473	0.680756	0.0494427	-0.329051	0.994496	1.09911	-0.514004	0.980045	1.03733	-0.550997	0.838074	1.48951	-0.111708	0.583201	1.27303	-0.0140154	0.578853	1.23558	-0.0963709	0.693641	1.1252	0.00762083	0.714513	1.30821	-0.0354262	0.755435	1.02821	0.00665831	0.709677	1.01136	0.0245794	0.979785	1.4026	-0.283715	0.909893	0.969091	-0.149601	0.70041	1.03152	-0.220384	0.660317	0.295931	-0.151421	0.70054	0.430463	-0.171768	0.645301	0.495582	-0.229708	1.1003	0.583114	-0.133741	0.91088	0.462799	-0.148945	1.00347	0.561469	-0.114591	0.891357	0.539848	-0.130219	1.02559	0.495491	-0.141738	1.04089	0.807914	-0.124823	1.10695	0.71547	-0.140023	1.09683	0.665974	-0.111906	0.962423	0.741195	-0.0784602	1.03148	0.64932	-0.106038	0.70015	0.267727	-0.213616
590	2.945	0.82744	1.51706	-0.313427	0.896704	0.977305	-0.421337	0.698645	1.02882	-0.330109	0.615138	0.0412182	-0.393845	0.905507	1.4718	-0.491196	0.499871	0.136852	-0.365066	0.433524	0.127085	-0.313567	0.763572	1.18023	-0.635059	0.726207	1.13433	-0.55918	0.911231	1.10808	-0.587215	0.840418	1.23961	-0.586423	0.770939	0.466292	-0.428008	0.663304	0.405679	-0.44123	0.593073	0.307975	-0.417288	0.731672	0.349754	-0.420601	0.883168	0.67981	-0.454556	0.855028	0.54712	-0.420395	0.767326	0.702683	-0.476056	0.744969	0.570109	-0.436683	0.65854	0.0490155	-0.328836	0.999026	1.10658	-0.510218	0.98624	1.04399	-0.546297	0.834791	1.4931	-0.112232	0.577737	1.27947	-0.0168287	0.573833	1.24206	-0.0992011	0.686855	1.13135	0.00587243	0.709655	1.31361	-0.0367626	0.748227	1.03403	0.00546719	0.702127	1.01729	0.0228785	0.979614	1.40672	-0.281822	0.910931	0.97406	-0.149677	0.703007	1.03403	-0.220954	0.683311	0.28211	-0.151932	0.715163	0.418653	-0.172543	0.656495	0.479798	-0.232088	1.10704	0.592983	-0.133908	0.92356	0.462125	-0.149717	1.00994	0.566049	-0.115191	0.899505	0.537942	-0.131651	1.03608	0.501442	-0.141581	1.04291	0.816431	-0.124515	1.11116	0.725632	-0.139787	1.10189	0.675689	-0.112178	0.965944	0.747636	-0.0781545	1.03695	0.657539	-0.106179	0.72502	0.255847	-0.214021
591	2.95	0.827337	1.52056	-0.313567	0.898763	0.979773	-0.421389	0.700054	1.03088	-0.331178	0.593123	0.0417053	-0.393884	0.905831	1.47626	-0.490517	0.480936	0.142722	-0.365885	0.4151	0.135353	-0.314419	0.767933	1.18263	-0.63353	0.730734	1.13705	-0.557301	0.916399	1.11347	-0.583749	0.844121	1.24311	-0.584894	0.755832	0.470293	-0.427711	0.646926	0.411393	-0.440981	0.575403	0.314704	-0.417356	0.714445	0.354258	-0.421154	0.876394	0.679915	-0.452375	0.842534	0.548286	-0.418533	0.761822	0.706531	-0.475733	0.734219	0.575128	-0.437374	0.63628	0.0483583	-0.328745	1.00352	1.11444	-0.506406	0.992141	1.05106	-0.541571	0.831842	1.49688	-0.112746	0.572567	1.28604	-0.0195988	0.569123	1.24861	-0.101987	0.680647	1.13793	0.00398927	0.704926	1.31926	-0.0380093	0.741567	1.0402	0.00414024	0.695167	1.02367	0.0210869	0.979402	1.41105	-0.279916	0.912199	0.979294	-0.149652	0.705431	1.03667	-0.221561	0.706664	0.268706	-0.152621	0.730418	0.406464	-0.175085	0.668456	0.463609	-0.235034	1.11302	0.602377	-0.134243	0.935942	0.461289	-0.150502	1.01574	0.570002	-0.11586	0.907269	0.535547	-0.133108	1.04584	0.50705	-0.141174	1.04488	0.824634	-0.124042	1.1149	0.735261	-0.139629	1.10648	0.684901	-0.112441	0.969322	0.754297	-0.0779648	1.04191	0.665437	-0.10633	0.750115	0.244511	-0.214319
592	2.955	0.827266	1.52407	-0.314239	0.900994	0.982308	-0.42137	0.701704	1.03344	-0.332285	0.57176	0.0424434	-0.394107	0.906452	1.48081	-0.48964	0.462793	0.149049	-0.366699	0.39765	0.144172	-0.315145	0.772174	1.18529	-0.632012	0.735022	1.13996	-0.555465	0.921323	1.11919	-0.58033	0.847711	1.24682	-0.583321	0.741118	0.475027	-0.427616	0.630787	0.417897	-0.440756	0.558142	0.321889	-0.417498	0.697525	0.359663	-0.421953	0.869773	0.680753	-0.449983	0.829328	0.550119	-0.416131	0.756583	0.71085	-0.475922	0.723993	0.580454	-0.438254	0.614572	0.048006	-0.328926	1.00782	1.12253	-0.502591	0.997719	1.05846	-0.536873	0.829002	1.50089	-0.11316	0.5676	1.29274	-0.0224004	0.564652	1.25532	-0.104843	0.674882	1.14486	0.00197411	0.700449	1.32505	-0.0392199	0.735366	1.04669	0.00268992	0.68874	1.03042	0.0192963	0.979168	1.41554	-0.277999	0.913319	0.983948	-0.149629	0.706976	1.03987	-0.222163	0.730257	0.255728	-0.153549	0.74597	0.394169	-0.177946	0.681254	0.447103	-0.238423	1.11836	0.611123	-0.134352	0.948051	0.460212	-0.151281	1.02098	0.573466	-0.116665	0.914909	0.532716	-0.134663	1.05497	0.512258	-0.140574	1.04689	0.832348	-0.123593	1.11826	0.744334	-0.139486	1.11066	0.693585	-0.112687	0.972445	0.760669	-0.0781748	1.04646	0.673013	-0.106474	0.77569	0.233625	-0.214445
593	2.96	0.827137	1.52758	-0.314918	0.903412	0.984754	-0.421075	0.70353	1.03598	-0.333201	0.550598	0.0432043	-0.394363	0.908071	1.4854	-0.488082	0.445543	0.155855	-0.36752	0.381335	0.153552	-0.315732	0.776396	1.18823	-0.63055	0.739205	1.14321	-0.553697	0.925985	1.1252	-0.576963	0.851204	1.25073	-0.581721	0.726756	0.480471	-0.42769	0.614788	0.425129	-0.440612	0.541285	0.329619	-0.417594	0.681044	0.365914	-0.423033	0.863238	0.68248	-0.447715	0.817924	0.552933	-0.414389	0.75154	0.7155	-0.476179	0.714367	0.586027	-0.439165	0.593117	0.0478295	-0.329043	1.01185	1.13086	-0.498767	1.00302	1.06613	-0.532138	0.826332	1.50498	-0.113554	0.562794	1.29953	-0.0253869	0.560433	1.26213	-0.107807	0.669553	1.15201	-0.000235055	0.696232	1.33096	-0.040236	0.729608	1.05346	0.0011039	0.682859	1.03733	0.0174594	0.978916	1.42012	-0.276097	0.914521	0.988578	-0.14947	0.708331	1.04316	-0.222812	0.754168	0.243177	-0.154508	0.761844	0.381894	-0.180415	0.694885	0.430401	-0.242118	1.12301	0.619152	-0.134213	0.95994	0.458888	-0.152026	1.02577	0.576558	-0.117428	0.922517	0.529533	-0.136243	1.06361	0.517007	-0.139882	1.04886	0.839502	-0.123005	1.12138	0.752705	-0.139301	1.11444	0.701712	-0.112861	0.975261	0.766622	-0.0784127	1.05058	0.680146	-0.106553	0.801779	0.223234	-0.214243
594	2.965	0.826974	1.53116	-0.315025	0.906052	0.987116	-0.420297	0.705571	1.0384	-0.333653	0.529513	0.044021	-0.394667	0.909905	1.48999	-0.486266	0.429272	0.163142	-0.368462	0.36627	0.163391	-0.316163	0.780623	1.19139	-0.629059	0.743114	1.14685	-0.552049	0.930416	1.13147	-0.573635	0.854624	1.25484	-0.580091	0.71278	0.486706	-0.42792	0.599145	0.433097	-0.44048	0.524872	0.338128	-0.417468	0.664982	0.37294	-0.424445	0.857	0.684573	-0.445576	0.807751	0.556513	-0.412857	0.746931	0.720249	-0.475827	0.705314	0.59199	-0.440167	0.57174	0.0477275	-0.328964	1.01552	1.13938	-0.494955	1.00813	1.07407	-0.527356	0.823977	1.50904	-0.113983	0.558223	1.30639	-0.0284557	0.556548	1.26901	-0.110724	0.664662	1.15932	-0.00257902	0.692302	1.33697	-0.0409467	0.724289	1.06032	-0.000650345	0.677456	1.04436	0.0155676	0.97865	1.42477	-0.274192	0.915948	0.993281	-0.149236	0.709865	1.04642	-0.223474	0.778421	0.231069	-0.155386	0.778069	0.36963	-0.182717	0.709374	0.413426	-0.245942	1.12708	0.626459	-0.133802	0.971584	0.457288	-0.152888	1.03016	0.578872	-0.118225	0.929961	0.525869	-0.137999	1.07188	0.521173	-0.139304	1.05085	0.846248	-0.122657	1.12424	0.76026	-0.138908	1.11784	0.709187	-0.113034	0.977837	0.772263	-0.0785254	1.05429	0.686817	-0.106738	0.82828	0.213617	-0.21382
595	2.97	0.826771	1.53504	-0.313977	0.908776	0.989516	-0.41925	0.707751	1.04103	-0.33383	0.508663	0.0448501	-0.395126	0.911226	1.49467	-0.484859	0.414155	0.170659	-0.369509	0.352541	0.173538	-0.31648	0.784796	1.19477	-0.627548	0.746692	1.15063	-0.55059	0.934576	1.13791	-0.570339	0.85802	1.2591	-0.578465	0.699197	0.493754	-0.428241	0.584037	0.441673	-0.440293	0.509192	0.347239	-0.417081	0.649486	0.380659	-0.426072	0.851137	0.687	-0.443592	0.798135	0.560903	-0.41159	0.74288	0.725267	-0.47586	0.696717	0.598352	-0.441276	0.550381	0.0477513	-0.328832	1.0188	1.14798	-0.491189	1.01276	1.08215	-0.522659	0.821867	1.51309	-0.114377	0.554021	1.31317	-0.0313734	0.552946	1.27594	-0.113712	0.660185	1.16659	-0.00501248	0.688691	1.34304	-0.0414137	0.719338	1.0672	-0.00256614	0.67244	1.05137	0.0135447	0.978323	1.4295	-0.272326	0.917415	0.997795	-0.148997	0.711595	1.04977	-0.223971	0.802889	0.219377	-0.156247	0.794734	0.357345	-0.185027	0.724728	0.39648	-0.249921	1.13056	0.632938	-0.133068	0.983111	0.455539	-0.153623	1.03412	0.580354	-0.119099	0.937334	0.521673	-0.139788	1.0795	0.52495	-0.138941	1.05276	0.852572	-0.122042	1.12691	0.76697	-0.138633	1.12082	0.716002	-0.113133	0.98021	0.777642	-0.0787061	1.05759	0.693056	-0.107001	0.85483	0.204563	-0.213564
596	2.975	0.826566	1.53889	-0.312768	0.911311	0.992186	-0.419327	0.709844	1.0439	-0.334886	0.488031	0.0455609	-0.395698	0.912097	1.49935	-0.483687	0.400266	0.17815	-0.370775	0.340208	0.183901	-0.316766	0.788742	1.19843	-0.626286	0.750126	1.15449	-0.549249	0.938497	1.14448	-0.567127	0.861363	1.2635	-0.576853	0.686196	0.501611	-0.428594	0.569563	0.450721	-0.440014	0.494351	0.356752	-0.416407	0.634604	0.38912	-0.4277	0.845628	0.689754	-0.441821	0.78885	0.565748	-0.410551	0.739216	0.730607	-0.476365	0.688803	0.605095	-0.442048	0.529155	0.0478569	-0.32887	1.02172	1.15659	-0.487451	1.01705	1.09039	-0.51809	0.819876	1.51703	-0.114685	0.550144	1.31986	-0.0343123	0.549617	1.28279	-0.116745	0.655966	1.17381	-0.00749535	0.685275	1.34898	-0.0424304	0.714755	1.07409	-0.00448389	0.667759	1.0583	0.0114314	0.977969	1.43422	-0.270514	0.918931	1.00207	-0.14879	0.713361	1.05316	-0.224366	0.827495	0.20817	-0.157353	0.81185	0.345042	-0.187478	0.740961	0.379707	-0.253948	1.13327	0.638619	-0.132577	0.994448	0.453551	-0.153946	1.03782	0.581218	-0.120014	0.944743	0.517029	-0.14149	1.08651	0.52827	-0.138567	1.05457	0.858466	-0.121226	1.1293	0.77324	-0.138724	1.12343	0.722219	-0.113105	0.982335	0.7827	-0.0789639	1.06039	0.698829	-0.107312	0.881359	0.195994	-0.213465
597	2.98	0.826451	1.54243	-0.31239	0.914008	0.995317	-0.419192	0.712082	1.0471	-0.33571	0.467649	0.0462902	-0.396224	0.912957	1.50394	-0.482394	0.387586	0.185463	-0.372429	0.329376	0.194413	-0.317096	0.792546	1.20227	-0.625218	0.753371	1.15837	-0.548	0.942174	1.15115	-0.564009	0.864657	1.26794	-0.575259	0.673949	0.510134	-0.428896	0.555579	0.46031	-0.439615	0.480428	0.366371	-0.415592	0.62046	0.398199	-0.429252	0.840469	0.692926	-0.440404	0.779822	0.570595	-0.409487	0.735852	0.736137	-0.477094	0.681507	0.612172	-0.442477	0.508203	0.0480073	-0.329209	1.02437	1.16522	-0.483733	1.02107	1.09875	-0.513691	0.818017	1.52088	-0.11493	0.546565	1.32645	-0.0372921	0.546696	1.28947	-0.119728	0.652054	1.18086	-0.00999526	0.681923	1.35464	-0.0446105	0.710602	1.08093	-0.00635899	0.663423	1.06516	0.00940149	0.977554	1.43891	-0.268792	0.920458	1.00608	-0.14865	0.715156	1.05661	-0.224855	0.852298	0.197381	-0.158496	0.829455	0.332854	-0.189778	0.757993	0.363028	-0.257931	1.13525	0.643528	-0.132279	1.00553	0.451183	-0.153534	1.04129	0.581458	-0.120926	0.952246	0.511964	-0.143218	1.09314	0.531089	-0.138102	1.0562	0.863924	-0.12036	1.13131	0.779064	-0.138449	1.12567	0.727833	-0.11307	0.984185	0.787316	-0.0792424	1.06273	0.704098	-0.107647	0.907865	0.187994	-0.213404
